<?xml version="1.0" encoding="UTF-8"?><svg id="Vrstva_1" xmlns="http://www.w3.org/2000/svg" xmlns:xlink="http://www.w3.org/1999/xlink" viewBox="0 0 522 522"><defs><linearGradient id="Nepojmenovaný_přechod_86" x1="431.77" y1="-392.68" x2="431.77" y2="-860.07" gradientTransform="translate(544.38 -247.91) rotate(-180)" gradientUnits="userSpaceOnUse"><stop offset="0" stop-color="#c4c1e1"/><stop offset="1" stop-color="#544696"/></linearGradient><linearGradient id="Nepojmenovaný_přechod_86-2" x1="391.3" y1="-392.68" x2="391.3" y2="-860.07" xlink:href="#Nepojmenovaný_přechod_86"/><linearGradient id="Nepojmenovaný_přechod_86-3" x1="391.36" y1="-392.68" x2="391.36" y2="-860.07" xlink:href="#Nepojmenovaný_přechod_86"/><linearGradient id="Nepojmenovaný_přechod_86-4" x1="355.31" y1="-392.68" x2="355.31" y2="-860.07" xlink:href="#Nepojmenovaný_přechod_86"/><linearGradient id="Nepojmenovaný_přechod_19" x1="373.07" y1="-256.17" x2="373.07" y2="-520.02" gradientTransform="translate(544.38 -247.91) rotate(-180)" gradientUnits="userSpaceOnUse"><stop offset="0" stop-color="#c4c1e1"/><stop offset="1" stop-color="#a49dcc"/></linearGradient><linearGradient id="Nepojmenovaný_přechod_19-2" x1="339.28" y1="-256.17" x2="339.28" y2="-520.02" xlink:href="#Nepojmenovaný_přechod_19"/><linearGradient id="Nepojmenovaný_přechod_19-3" x1="313.24" y1="-256.17" x2="313.24" y2="-520.02" xlink:href="#Nepojmenovaný_přechod_19"/><linearGradient id="Nepojmenovaný_přechod_19-4" x1="399.16" y1="-357.78" x2="399.16" y2="-622.71" xlink:href="#Nepojmenovaný_přechod_19"/><linearGradient id="Nepojmenovaný_přechod_19-5" x1="352.58" y1="-357.78" x2="352.58" y2="-622.71" xlink:href="#Nepojmenovaný_přechod_19"/><linearGradient id="Nepojmenovaný_přechod_19-6" x1="319.81" y1="-357.78" x2="319.81" y2="-622.71" xlink:href="#Nepojmenovaný_přechod_19"/><linearGradient id="Nepojmenovaný_přechod_19-7" x1="290.46" y1="-357.78" x2="290.46" y2="-622.71" xlink:href="#Nepojmenovaný_přechod_19"/></defs><rect x="70.2" y="70.2" width="381.6" height="381.6" rx="21.32" ry="21.32" transform="translate(261 -108.11) rotate(45)" fill="#1e1e1c"/><polygon points="135.91 276.77 100.11 276.77 100.11 202.06 89.3 202.06 89.3 285.85 135.91 285.85 135.91 276.77" fill="#8d86bf"/><polygon points="135.91 276.77 100.11 276.77 100.11 202.06 89.3 202.06 89.3 285.85 135.91 285.85 135.91 276.77" fill="url(#Nepojmenovaný_přechod_86)"/><rect x="147.61" y="225.68" width="10.94" height="60.16" fill="#8d86bf"/><rect x="147.61" y="225.68" width="10.94" height="60.16" fill="url(#Nepojmenovaný_přechod_86-2)"/><path d="m152.83,215.49c4.35,0,7.09-2.98,6.96-6.71,0-3.85-2.61-6.84-6.71-6.84s-6.84,2.98-6.84,6.84,2.73,6.71,6.59,6.71Z" fill="#8d86bf"/><path d="m152.83,215.49c4.35,0,7.09-2.98,6.96-6.71,0-3.85-2.61-6.84-6.71-6.84s-6.84,2.98-6.84,6.84,2.73,6.71,6.59,6.71Z" fill="url(#Nepojmenovaný_přechod_86-3)"/><path d="m177.81,285.85h10.82v-51.84h14.55v-8.33h-14.55v-3.23c0-9.2,2.36-17.4,11.69-17.4,3.11,0,5.35.62,6.96,1.37l1.49-8.45c-2.11-.87-5.47-1.74-9.32-1.74-5.1,0-10.57,1.62-14.67,5.59-5.1,4.85-6.96,12.56-6.96,21.01v2.86h-8.45v8.33h8.45v51.84Z" fill="#8d86bf"/><path d="m177.81,285.85h10.82v-51.84h14.55v-8.33h-14.55v-3.23c0-9.2,2.36-17.4,11.69-17.4,3.11,0,5.35.62,6.96,1.37l1.49-8.45c-2.11-.87-5.47-1.74-9.32-1.74-5.1,0-10.57,1.62-14.67,5.59-5.1,4.85-6.96,12.56-6.96,21.01v2.86h-8.45v8.33h8.45v51.84Z" fill="url(#Nepojmenovaný_přechod_86-4)"/><path d="m219.21,268.69c0,7.09,4.72,10.44,10.32,10.44,7.83,0,12.8-4.97,14.54-10.07.37-1.12.62-2.36.62-3.48v-10.44c-11.94-.25-25.49,1.86-25.49,13.55Z" fill="none"/><path d="m419.86,232.15c-11.06,0-15.91,10.19-16.78,17.77h31.95c.12-6.96-2.86-17.77-15.17-17.77Z" fill="none"/><path d="m445.59,252.66c0-11.06-5.22-28.34-24.86-28.34-17.53,0-28.22,14.3-28.22,32.44s11.06,30.33,29.58,30.33c9.57,0,16.16-1.99,20.02-3.73l-1.86-7.83c-4.1,1.74-8.83,3.11-16.66,3.11-10.94,0-20.39-6.09-20.64-20.88h42.26c.12-1.12.37-2.86.37-5.1Zm-42.51-2.74c.87-7.58,5.72-17.77,16.78-17.77,12.31,0,15.29,10.81,15.17,17.77h-31.95Z" fill="#fff"/><path d="m255.26,248.93c0-12.06-4.48-24.61-22.87-24.61-7.58,0-14.79,2.11-19.77,5.35l2.49,7.21c4.23-2.74,10.07-4.48,15.66-4.48,12.31,0,13.68,8.95,13.68,13.92v1.24c-23.25-.12-36.17,7.83-36.17,22.37,0,8.7,6.22,17.28,18.4,17.28,8.58,0,15.04-4.23,18.4-8.95h.37l.87,7.58h9.95c-.75-4.1-.99-9.2-.99-14.42v-22.5Zm-10.57,16.66c0,1.12-.25,2.36-.62,3.48-1.74,5.1-6.71,10.07-14.54,10.07-5.59,0-10.32-3.36-10.32-10.44,0-11.69,13.55-13.8,25.49-13.55v10.44Z" fill="#fff"/><path d="m302.88,224.31c-9.95,0-16.91,5.59-19.89,11.31h-.25l-.62-9.95h-9.7c.37,4.97.5,10.07.5,16.28v43.88h10.94v-36.17c0-1.86.25-3.73.75-5.1,1.86-6.09,7.46-11.19,14.67-11.19,10.32,0,13.92,8.08,13.92,17.77v34.68h10.94v-35.92c0-20.63-12.93-25.61-21.26-25.61Z" fill="#fff"/><path d="m369.88,233.14c3.6,0,6.45.52,8.77,1.25,1.53.48,2.87,1.02,3.91,1.61l2.49-8.45c-1.51-.76-3.73-1.54-6.4-2.14-2.58-.58-5.58-.97-8.77-.97-19.64,0-32.32,13.43-32.32,31.95s11.81,30.7,29.96,30.7c4.3,0,8.08-.57,11.13-1.32,2.69-.66,4.81-1.46,6.15-2.16l-1.86-8.2c-1.24.55-2.65,1.13-4.29,1.64-2.45.76-5.41,1.35-9.14,1.35-11.94,0-20.89-8.58-20.89-22.5,0-12.56,7.46-22.75,21.26-22.75Z" fill="#fff"/><path d="m182.22,168.12c2.39-2.32,4-5.4,4-9.47,0-7.02-5.26-10.74-9.75-11.86v-.14c4.98-1.82,8-5.82,8-10.39,0-3.72-1.47-6.53-3.93-8.35-2.95-2.39-6.88-3.44-12.98-3.44-4.28,0-8.49.42-11.16.98v46.52c2.03.28,5.26.56,9.47.56,7.72,0,13.05-1.4,16.35-4.42Zm-19.72-38.53c.98-.21,2.6-.42,5.4-.42,6.18,0,10.39,2.18,10.39,7.72,0,4.56-3.79,7.93-10.25,7.93h-5.54v-15.23Zm0,19.86h5.05c6.67,0,12.21,2.67,12.21,9.12,0,6.88-5.82,9.19-12.14,9.19-2.18,0-3.93-.07-5.12-.28v-18.03Z" fill="#8d86bf"/><path d="m182.22,168.12c2.39-2.32,4-5.4,4-9.47,0-7.02-5.26-10.74-9.75-11.86v-.14c4.98-1.82,8-5.82,8-10.39,0-3.72-1.47-6.53-3.93-8.35-2.95-2.39-6.88-3.44-12.98-3.44-4.28,0-8.49.42-11.16.98v46.52c2.03.28,5.26.56,9.47.56,7.72,0,13.05-1.4,16.35-4.42Zm-19.72-38.53c.98-.21,2.6-.42,5.4-.42,6.18,0,10.39,2.18,10.39,7.72,0,4.56-3.79,7.93-10.25,7.93h-5.54v-15.23Zm0,19.86h5.05c6.67,0,12.21,2.67,12.21,9.12,0,6.88-5.82,9.19-12.14,9.19-2.18,0-3.93-.07-5.12-.28v-18.03Z" fill="url(#Nepojmenovaný_přechod_19)"/><path d="m191.56,163.14c0,4.91,3.51,9.75,10.39,9.75,4.84,0,8.49-2.39,10.39-5.05h.21l.49,4.28h5.61c-.42-2.32-.56-5.19-.56-8.14v-12.7c0-6.81-2.53-13.89-12.91-13.89-4.28,0-8.35,1.19-11.16,3.02l1.4,4.07c2.39-1.54,5.68-2.53,8.84-2.53,6.95,0,7.72,5.05,7.72,7.86v.7c-13.12-.07-20.42,4.42-20.42,12.63Zm20.56-8.35v5.9c0,.63-.14,1.33-.35,1.96-.98,2.88-3.79,5.68-8.21,5.68-3.16,0-5.83-1.89-5.83-5.89,0-6.6,7.65-7.79,14.39-7.65Z" fill="#8d86bf"/><path d="m191.56,163.14c0,4.91,3.51,9.75,10.39,9.75,4.84,0,8.49-2.39,10.39-5.05h.21l.49,4.28h5.61c-.42-2.32-.56-5.19-.56-8.14v-12.7c0-6.81-2.53-13.89-12.91-13.89-4.28,0-8.35,1.19-11.16,3.02l1.4,4.07c2.39-1.54,5.68-2.53,8.84-2.53,6.95,0,7.72,5.05,7.72,7.86v.7c-13.12-.07-20.42,4.42-20.42,12.63Zm20.56-8.35v5.9c0,.63-.14,1.33-.35,1.96-.98,2.88-3.79,5.68-8.21,5.68-3.16,0-5.83-1.89-5.83-5.89,0-6.6,7.65-7.79,14.39-7.65Z" fill="url(#Nepojmenovaný_přechod_19-2)"/><rect x="228.05" y="122.3" width="6.18" height="49.82" fill="#8d86bf"/><rect x="228.05" y="122.3" width="6.18" height="49.82" fill="url(#Nepojmenovaný_přechod_19-3)"/><path d="m361.39,141.81c-6.25,0-8.98,5.75-9.47,10.03h18.03c.07-3.93-1.61-10.03-8.56-10.03Z" fill="none"/><path d="m248.12,162.44c0,4,2.67,5.89,5.83,5.89,4.42,0,7.23-2.81,8.21-5.68.21-.63.35-1.33.35-1.96v-5.9c-6.74-.14-14.39,1.05-14.39,7.65Z" fill="none"/><path d="m333.18,142.37c3.37,0,5.68.77,7.16,1.61l1.4-4.77c-1.68-.84-4.91-1.75-8.56-1.75-5.64,0-10.26,1.97-13.44,5.27-3.07,3.19-4.81,7.62-4.81,12.76s1.74,9.69,4.81,12.74c2.94,2.92,7.09,4.59,12.11,4.59,4.56,0,8.14-1.12,9.75-1.96l-1.05-4.63c-1.76.77-4.07,1.68-7.58,1.68-6.74,0-11.79-4.84-11.79-12.7,0-7.09,4.21-12.84,12-12.84Z" fill="#fff"/><path d="m375.92,153.38c0-6.25-2.95-16-14.03-16-9.89,0-15.93,8.07-15.93,18.32s6.24,17.12,16.7,17.12c5.4,0,9.12-1.12,11.3-2.1l-1.05-4.42c-2.32.98-4.98,1.75-9.4,1.75-6.18,0-11.51-3.44-11.65-11.79h23.86c.07-.63.21-1.61.21-2.88Zm-24-1.54c.49-4.28,3.23-10.03,9.47-10.03,6.95,0,8.63,6.1,8.56,10.03h-18.03Z" fill="#fff"/><path d="m268.47,151.28c0-6.81-2.53-13.89-12.91-13.89-4.28,0-8.35,1.19-11.16,3.02l1.4,4.07c2.39-1.54,5.68-2.53,8.84-2.53,6.95,0,7.72,5.05,7.72,7.86v.7c-13.12-.07-20.42,4.42-20.42,12.63,0,4.91,3.51,9.75,10.39,9.75,4.84,0,8.49-2.39,10.39-5.05h.21l.49,4.28h5.61c-.42-2.32-.56-5.19-.56-8.14v-12.7Zm-5.96,9.4c0,.63-.14,1.33-.35,1.96-.98,2.88-3.79,5.68-8.21,5.68-3.16,0-5.83-1.89-5.83-5.89,0-6.6,7.65-7.79,14.39-7.65v5.9Z" fill="#fff"/><path d="m295.35,137.39c-5.61,0-9.54,3.16-11.23,6.39h-.14l-.35-5.61h-5.47c.21,2.81.28,5.68.28,9.19v24.77h6.18v-20.42c0-1.05.14-2.11.42-2.88,1.05-3.44,4.21-6.31,8.28-6.31,5.82,0,7.86,4.56,7.86,10.03v19.58h6.18v-20.28c0-11.65-7.3-14.46-12-14.46Z" fill="#fff"/><path d="m161.67,335.43c-1.48,5.92-2.82,11.2-3.8,16.42h-.14c-.71-5-1.97-10.64-3.31-16.28l-5.78-24.1h-6.41l-6.34,23.96c-1.62,6.13-3.1,11.77-3.87,16.49h-.14c-.84-4.58-2.11-10.5-3.52-16.42l-5.64-24.03h-6.48l12.05,47.49h6.41l6.76-24.73c1.76-6.13,2.82-10.78,3.66-15.5h.14c.63,4.79,1.62,9.44,3.1,15.5l5.99,24.73h6.41l13.46-47.49h-6.27l-6.27,23.96Z" fill="#675aa3"/><path d="m161.67,335.43c-1.48,5.92-2.82,11.2-3.8,16.42h-.14c-.71-5-1.97-10.64-3.31-16.28l-5.78-24.1h-6.41l-6.34,23.96c-1.62,6.13-3.1,11.77-3.87,16.49h-.14c-.84-4.58-2.11-10.5-3.52-16.42l-5.64-24.03h-6.48l12.05,47.49h6.41l6.76-24.73c1.76-6.13,2.82-10.78,3.66-15.5h.14c.63,4.79,1.62,9.44,3.1,15.5l5.99,24.73h6.41l13.46-47.49h-6.27l-6.27,23.96Z" fill="url(#Nepojmenovaný_přechod_19-4)"/><path d="m192.05,324.08c-9.44,0-16.91,6.69-16.91,18.11,0,10.78,7.12,17.54,16.35,17.54,8.24,0,16.98-5.5,16.98-18.11,0-10.43-6.62-17.54-16.42-17.54Zm-.28,31c-6.06,0-10.36-5.64-10.36-13.11,0-6.48,3.17-13.25,10.5-13.25s10.22,7.33,10.22,13.11c0,7.68-4.44,13.25-10.36,13.25Z" fill="#675aa3"/><path d="m192.05,324.08c-9.44,0-16.91,6.69-16.91,18.11,0,10.78,7.12,17.54,16.35,17.54,8.24,0,16.98-5.5,16.98-18.11,0-10.43-6.62-17.54-16.42-17.54Zm-.28,31c-6.06,0-10.36-5.64-10.36-13.11,0-6.48,3.17-13.25,10.5-13.25s10.22,7.33,10.22,13.11c0,7.68-4.44,13.25-10.36,13.25Z" fill="url(#Nepojmenovaný_přechod_19-5)"/><path d="m221.93,331.55h-.28l-.21-6.69h-5.43c.21,3.17.28,6.62.28,10.64v23.46h6.13v-18.18c0-1.06.14-2.04.28-2.89.84-4.65,3.95-7.96,8.32-7.96.84,0,1.48.07,2.11.21v-5.85c-.56-.14-1.06-.21-1.76-.21-4.16,0-7.89,2.89-9.44,7.47Z" fill="#675aa3"/><path d="m221.93,331.55h-.28l-.21-6.69h-5.43c.21,3.17.28,6.62.28,10.64v23.46h6.13v-18.18c0-1.06.14-2.04.28-2.89.84-4.65,3.95-7.96,8.32-7.96.84,0,1.48.07,2.11.21v-5.85c-.56-.14-1.06-.21-1.76-.21-4.16,0-7.89,2.89-9.44,7.47Z" fill="url(#Nepojmenovaný_přechod_19-6)"/><path d="m266.39,324.86h-7.47l-10.01,11.77c-.99,1.2-2.18,2.68-3.03,3.88h-.14v-31.57h-6.13v50.03h6.13v-12.82l3.17-3.52,11.77,16.35h7.54l-15.01-20.08,13.18-14.02Z" fill="#675aa3"/><path d="m266.39,324.86h-7.47l-10.01,11.77c-.99,1.2-2.18,2.68-3.03,3.88h-.14v-31.57h-6.13v50.03h6.13v-12.82l3.17-3.52,11.77,16.35h7.54l-15.01-20.08,13.18-14.02Z" fill="url(#Nepojmenovaný_přechod_19-7)"/><path d="m284.54,342.14c-3.99.88-7.08,2.89-7.08,7.09s2.68,5.92,5.85,5.92c.43,0,.83-.05,1.23-.1,3.72-.47,6.12-3,7.01-5.61.21-.63.35-1.34.35-1.97v-5.92c-2.47-.05-5.07.08-7.36.59Z" fill="none"/><path d="m391.19,328.52c-6.27,0-9.02,5.78-9.51,10.08h18.11c.07-3.95-1.62-10.08-8.6-10.08Z" fill="none"/><path d="m297.89,338.04c0-6.83-2.54-13.95-12.96-13.95-.13,0-.26.01-.39.01-4.15.07-8.08,1.24-10.82,3.02l1.41,4.09c2.4-1.55,5.71-2.54,8.88-2.54.19,0,.35.02.53.02,6.47.26,7.22,5.12,7.22,7.87v.71c-2.65-.01-5.06.17-7.22.52-8.59,1.39-13.28,5.58-13.28,12.17,0,4.93,3.52,9.79,10.43,9.79,1.01,0,1.95-.12,2.85-.31,3.44-.72,6.07-2.64,7.58-4.76h.21l.49,4.3h5.64c-.42-2.33-.56-5.21-.56-8.17v-12.75Zm-5.99,9.44c0,.63-.14,1.34-.35,1.97-.89,2.61-3.29,5.14-7.01,5.61-.4.05-.8.1-1.23.1-3.17,0-5.85-1.9-5.85-5.92s3.09-6.22,7.08-7.09c2.3-.51,4.89-.64,7.36-.59v5.92Z" fill="#fff"/><path d="m324.88,324.08c-5.64,0-9.58,3.17-11.27,6.41h-.14l-.35-5.64h-5.5c.21,2.82.28,5.71.28,9.23v24.87h6.2v-20.5c0-1.06.14-2.11.42-2.89,1.06-3.45,4.23-6.34,8.32-6.34,5.85,0,7.89,4.58,7.89,10.08v19.66h6.2v-20.36c0-11.7-7.33-14.51-12.05-14.51Z" fill="#fff"/><path d="m362.86,329.09c3.38,0,5.71.78,7.19,1.62l1.41-4.79c-1.69-.85-4.93-1.76-8.6-1.76-11.13,0-18.32,7.61-18.32,18.11s6.69,17.4,16.98,17.4c4.58,0,8.17-1.13,9.79-1.97l-1.06-4.65c-1.76.78-4.09,1.69-7.61,1.69-6.76,0-11.84-4.86-11.84-12.75,0-7.12,4.23-12.89,12.05-12.89Z" fill="#fff"/><path d="m405.78,340.15c0-6.27-2.96-16.07-14.09-16.07-9.93,0-15.99,8.1-15.99,18.39s6.27,17.19,16.77,17.19c5.43,0,9.16-1.13,11.34-2.11l-1.06-4.44c-2.32.99-5,1.76-9.44,1.76-6.2,0-11.56-3.45-11.7-11.84h23.96c.07-.63.21-1.62.21-2.89Zm-24.1-1.55c.49-4.3,3.24-10.08,9.51-10.08,6.98,0,8.67,6.13,8.6,10.08h-18.11Z" fill="#fff"/></svg>