<?xml version="1.0" encoding="UTF-8"?><svg id="Vrstva_1" xmlns="http://www.w3.org/2000/svg" xmlns:xlink="http://www.w3.org/1999/xlink" viewBox="0 0 314.86 314.86"><defs><style>.cls-1{fill:#fff;}.cls-2{fill:url(#Nepojmenovaný_přechod_7);}</style><linearGradient id="Nepojmenovaný_přechod_7" x1="0" y1="157.43" x2="314.86" y2="157.43" gradientUnits="userSpaceOnUse"><stop offset="0" stop-color="#675aa3"/><stop offset="1" stop-color="#8d86bf"/></linearGradient></defs><rect class="cls-2" width="314.86" height="314.86" rx="29.82" ry="29.82"/><path class="cls-1" d="m190.24,255.03h-21.65V86.69l77.23.17-33,52.45s-2.01,4.7,2.18,6.88c4.2,2.18,7.05-.84,7.05-.84l28.87-45.48,28.2,44.31s3.29,5.62,8.05,2.29c4.75-3.34,1.35-7.87,1.35-7.87l-32.39-51.9s9.06.5,9.23-8.73-10.74-8.39-10.74-8.39l-62.46-.02s-.09-4.98-15.2-11.36c0,0-1.06-17.07-19.52-17.74-18.46.67-19.52,17.74-19.52,17.74-15.11,6.38-15.2,11.36-15.2,11.36l-62.46.02s-10.91-.84-10.74,8.39c.17,9.23,9.23,8.73,9.23,8.73l-32.39,51.9s-3.4,4.53,1.35,7.87c4.75,3.34,8.05-2.29,8.05-2.29l28.2-44.31,28.87,45.48s2.85,3.02,7.05.84c4.2-2.18,2.18-6.88,2.18-6.88l-33-52.45,77.23-.17v168.34h-21.65c-17.29,4.11-16.45,19.38-16.45,19.38h98.52s.84-15.27-16.45-19.38Z"/><path class="cls-1" d="m295.33,155.25c-1.07-2.01-3.08-2.18-3.08-2.18l-41.2-.5-41.2.5s-2.01.17-3.08,2.18c-1.07,2.01,2.96,23.73,11.58,30.78,8.62,7.05,9.59,11.96,32.71,14.41,23.12-2.45,24.08-7.36,32.71-14.41,8.62-7.05,12.65-28.76,11.58-30.78Z"/><path class="cls-1" d="m108.11,155.25c-1.07-2.01-3.08-2.18-3.08-2.18l-41.2-.5-41.2.5s-2.01.17-3.08,2.18c-1.07,2.01,2.96,23.73,11.58,30.78,8.62,7.05,9.59,11.96,32.71,14.41,23.12-2.45,24.08-7.36,32.71-14.41,8.62-7.05,12.65-28.76,11.58-30.78Z"/></svg>